<svg version="1.1" id="Layer_1" xmlns="http://www.w3.org/2000/svg" xmlns:xlink="http://www.w3.org/1999/xlink" x="0px" y="0px"
	 width="100%" viewBox="0 0 512 512" enable-background="new 0 0 512 512" xml:space="preserve">
<path fill="#FCFDFC" opacity="1.000000" stroke="none" 
	d="
M269.000000,513.000000 
	C179.355087,513.000000 90.210175,513.000000 1.032630,513.000000 
	C1.032630,342.396729 1.032630,171.793442 1.032630,1.095084 
	C171.561600,1.095084 342.123260,1.095084 512.842468,1.095084 
	C512.842468,171.666550 512.842468,342.333252 512.842468,513.000000 
	C431.793427,513.000000 350.646698,513.000000 269.000000,513.000000 
M375.552704,401.628387 
	C375.663391,403.447266 375.867798,405.265991 375.870270,407.085022 
	C375.894775,425.077850 375.967194,443.071381 375.816956,461.062988 
	C375.787262,464.620270 376.567047,466.147888 380.489655,466.044342 
	C389.979187,465.793823 399.480560,466.033752 408.975983,465.947632 
	C416.397034,465.880341 419.120911,463.035950 419.120392,455.525818 
	C419.116241,392.717438 419.134125,329.908905 418.941101,267.101074 
	C418.933044,264.487396 417.599884,261.112732 415.703583,259.398010 
	C405.726715,250.376633 395.370361,241.774857 385.144928,233.028442 
	C382.445862,230.719788 379.743652,228.414780 375.874725,225.110382 
	C375.874725,228.292847 375.874725,230.040482 375.874725,231.788101 
	C375.874817,269.273193 375.887543,306.758331 375.838776,344.243317 
	C375.836273,346.163666 375.306152,348.083344 374.421844,349.419220 
	C374.280823,347.610291 374.018982,345.801453 374.016998,343.992371 
	C373.990204,319.668915 373.999725,295.345428 373.999939,271.021942 
	C374.000061,257.027618 373.924133,243.032318 374.100800,229.040253 
	C374.121521,227.399750 375.684753,224.310440 376.275787,224.371750 
	C382.435822,225.010529 388.851654,225.333466 394.550537,227.468369 
	C398.015259,228.766327 400.919373,228.505310 402.218719,226.416077 
	C403.106934,224.987930 401.450378,221.341675 400.045410,219.295578 
	C398.540466,217.103989 396.158356,215.377167 393.871063,213.890686 
	C389.820770,211.258438 388.261505,204.349625 381.080261,206.811249 
	C378.943024,207.543823 377.398529,205.594421 378.660126,202.963120 
	C379.132690,201.977509 379.574402,200.977112 380.030182,199.983444 
	C379.610199,200.133865 379.190247,200.284286 378.770264,200.434708 
	C377.180725,198.116699 374.531525,195.937836 374.205353,193.453918 
	C373.316681,186.686935 373.349030,186.419067 366.200378,185.925049 
	C364.208374,185.787384 362.279694,184.733398 360.321960,184.099777 
	C361.149536,182.626678 361.999908,181.165421 362.778839,179.667038 
	C362.888855,179.455399 362.650543,179.062683 362.873291,179.955353 
	C357.133942,178.012039 352.038177,176.286652 346.381897,174.371460 
	C347.921143,172.361450 348.839111,171.162735 349.765961,169.952408 
	C346.409790,168.553284 343.511566,166.648209 340.405090,166.205978 
	C335.150787,165.457993 332.295532,162.396225 329.848999,158.179932 
	C328.001190,154.995377 326.399750,151.181030 321.401672,151.876328 
	C320.673218,151.977676 319.307861,150.873367 318.996826,150.042587 
	C317.284454,145.468124 310.866516,144.262955 310.799744,138.482391 
	C310.794159,137.999207 309.253082,137.253693 308.349731,137.111862 
	C305.251343,136.625458 302.119232,136.353638 298.998474,135.206161 
	C298.264618,128.481750 294.149292,124.529015 288.270844,121.928764 
	C287.381836,121.535522 286.809906,120.479935 285.981232,119.883675 
	C284.557495,118.859261 283.100861,117.266212 281.561676,117.146072 
	C278.474365,116.905106 276.720093,115.867828 275.758087,112.811539 
	C274.438293,108.618546 271.751648,106.719078 266.855408,106.781364 
	C262.591064,106.835625 258.321075,104.916939 254.014847,104.066017 
	C252.585098,103.783493 250.907822,103.751976 249.566269,104.230133 
	C246.632019,105.275986 243.824432,106.688019 240.997681,108.019623 
	C239.742691,108.610809 238.210739,109.091774 237.420959,110.103844 
	C234.978683,113.233521 233.117218,116.852356 230.469437,119.772850 
	C228.771881,121.645233 226.176727,122.819679 223.803253,123.915756 
	C222.569901,124.485329 220.944458,124.205833 219.651047,124.298752 
	C217.902908,129.627121 216.031662,133.878433 211.747101,137.800430 
	C208.462646,140.806976 207.584732,146.719284 202.326584,148.760544 
	C202.017731,148.880478 202.256836,150.080322 201.967941,150.635590 
	C199.615677,155.156464 197.198334,159.643494 194.220779,165.228851 
	C192.380142,161.384216 191.356705,159.246506 190.046066,156.508926 
	C188.309509,158.366684 187.132584,159.625763 185.879456,160.966354 
	C187.093704,162.281052 187.950348,163.208542 188.856659,164.189819 
	C185.908707,168.040833 183.114380,171.559952 177.661270,169.483582 
	C177.140076,167.991989 176.630280,166.532990 175.682236,163.819763 
	C172.688217,166.613617 169.714096,168.412796 168.184204,171.049820 
	C165.998444,174.817429 164.092926,177.420380 159.944504,174.501175 
	C158.827377,176.340210 158.173126,178.123398 156.930405,179.267319 
	C155.651001,180.445007 153.265945,180.606293 152.304596,181.907013 
	C150.182251,184.778534 147.977676,185.020996 144.570328,184.601181 
	C142.279602,184.318924 139.239243,186.068817 137.394821,187.817322 
	C136.375305,188.783829 137.286987,191.640717 137.039368,193.609100 
	C136.786514,195.618942 136.657806,197.901947 135.604095,199.486313 
	C134.371078,201.340317 132.100800,202.470108 130.449570,204.086761 
	C125.441658,208.989853 125.473457,209.022339 119.298843,206.111313 
	C118.727425,211.059418 121.388924,216.465439 117.172874,220.595047 
	C117.003136,220.761276 117.463913,222.024719 117.917274,222.292923 
	C119.625931,223.303726 121.367790,224.493057 123.254326,224.917877 
	C126.776054,225.710922 130.407608,226.016266 133.531708,227.078445 
	C120.961479,237.971375 108.422623,248.900909 95.795258,259.727203 
	C93.185036,261.965118 92.156281,264.440643 92.160919,267.942841 
	C92.241928,329.080750 92.192795,390.218811 92.178711,451.356842 
	C92.178291,453.188019 92.072540,455.043701 92.321144,456.845886 
	C93.173721,463.026581 96.461441,465.870575 102.731796,465.940033 
	C107.395699,465.991699 112.060646,465.949188 116.725128,465.948944 
	C191.523483,465.945007 266.321930,465.896149 341.119965,466.041046 
	C345.968903,466.050415 347.339630,464.660004 347.184601,459.890930 
	C346.838409,449.240387 346.826080,438.563110 347.174652,427.912933 
	C347.335541,422.997101 345.653656,421.877045 340.959900,421.888336 
	C276.490417,422.043640 212.020432,422.005859 147.550568,422.012665 
	C135.962006,422.013916 135.935089,422.008026 135.936707,410.414764 
	C135.945282,349.278107 135.968552,288.141449 136.781403,227.181915 
	C137.187607,228.840332 137.930328,230.495651 137.945709,232.157684 
	C138.049988,243.437668 138.000809,254.719055 138.000519,266.937317 
	C138.000366,277.381287 137.834686,287.829529 138.106430,298.266418 
	C138.182571,301.191132 139.734253,304.049194 140.254745,307.000336 
	C140.609848,309.013733 140.606979,311.173218 140.310791,313.201202 
	C139.701721,317.371460 138.274139,321.476685 138.107330,325.645691 
	C137.756332,334.417816 138.001022,343.213806 138.000626,352.937317 
	C138.000610,371.913879 137.999039,390.890472 138.001419,409.867035 
	C138.002335,417.269867 138.740768,418.117462 146.391541,417.962128 
	C154.509155,417.797302 162.622574,417.021118 170.734497,417.069458 
	C184.676071,417.152557 198.614090,417.720276 212.555542,417.980652 
	C219.458664,418.109558 226.366104,418.008148 233.271591,418.009033 
	C244.419937,418.010437 255.568619,418.067841 266.716522,417.998413 
	C287.498749,417.869019 308.283844,417.829529 329.060577,417.402771 
	C336.214111,417.255829 343.342316,416.021118 350.492432,415.402557 
	C351.512207,415.314301 353.226135,415.600739 353.525818,416.232391 
	C354.538849,418.367310 355.059875,420.735657 356.165833,424.290436 
	C356.201660,424.341400 357.902557,425.649353 357.850006,426.882599 
	C357.642914,431.742065 357.819580,436.046143 363.683380,437.476044 
	C365.876831,438.010864 368.150208,439.520935 370.163116,439.196442 
	C373.415985,438.672089 374.103149,435.810028 374.049896,432.630371 
	C373.902222,423.810394 373.944763,414.985748 374.045135,406.164429 
	C374.064789,404.438263 374.682678,402.718903 375.552704,401.628387 
M279.369965,103.112785 
	C301.750702,122.303055 324.150665,141.471008 346.507202,160.689423 
	C372.652771,183.165024 398.725830,205.725235 424.949402,228.109299 
	C427.084869,229.932114 430.113617,231.705124 432.765961,231.764191 
	C450.091400,232.149918 467.427490,232.058289 484.760132,232.112335 
	C485.423615,232.114410 486.104919,232.088303 486.748169,231.943344 
	C490.226532,231.159424 491.203278,228.491684 488.944824,225.639389 
	C487.921051,224.346481 486.618988,223.253632 485.353271,222.175583 
	C459.739532,200.359879 434.158020,178.505722 408.432953,156.821945 
	C405.095703,154.008972 403.551239,151.194611 403.583679,146.692795 
	C403.768585,121.028404 403.634735,95.361511 403.562469,69.695602 
	C403.543152,62.840736 402.554657,61.934452 395.752258,61.939175 
	C386.252472,61.945770 376.752533,61.920448 367.252991,61.974068 
	C361.401764,62.007095 360.300598,63.124908 360.277496,69.070175 
	C360.226318,82.236351 360.249023,95.402809 360.208954,108.569046 
	C360.203674,110.305481 360.007812,112.041336 359.842896,114.702072 
	C357.919189,113.252716 356.734314,112.461449 355.663177,111.538246 
	C324.750946,84.895950 293.835236,58.257599 262.959808,31.572683 
	C256.736908,26.194368 253.512833,26.050306 247.327835,31.420694 
	C239.277588,38.410641 231.274765,45.455166 223.230713,52.452282 
	C186.031326,84.810104 148.883820,117.227928 111.601570,149.490021 
	C83.010101,174.231567 54.213245,198.735809 25.636883,223.494659 
	C23.907791,224.992752 23.319767,227.807846 22.200804,230.010132 
	C24.494886,230.915833 26.779537,232.576904 29.084566,232.605713 
	C45.081276,232.805450 61.084301,232.787292 77.079697,232.512787 
	C79.665680,232.468399 82.755852,231.431290 84.709824,229.782639 
	C99.089783,217.649704 113.268311,205.277008 127.457474,192.919174 
	C168.642838,157.049484 209.832336,121.184357 250.911270,85.193115 
	C253.767838,82.690338 255.639114,82.388458 258.470154,84.950867 
	C265.137421,90.985481 272.014740,96.788002 279.369965,103.112785 
z"/>
<path fill="#FFFFFE" opacity="1.000000" stroke="none" 
	d="
M138.001221,266.000000 
	C138.000809,254.719055 138.049988,243.437668 137.945709,232.157684 
	C137.930328,230.495651 137.187607,228.840332 136.043839,227.051819 
	C134.868668,226.789322 134.431061,226.656921 133.993454,226.524536 
	C130.407608,226.016266 126.776054,225.710922 123.254326,224.917877 
	C121.367790,224.493057 119.625931,223.303726 117.917274,222.292923 
	C117.463913,222.024719 117.003136,220.761276 117.172874,220.595047 
	C121.388924,216.465439 118.727425,211.059418 119.298843,206.111313 
	C125.473457,209.022339 125.441658,208.989853 130.449570,204.086761 
	C132.100800,202.470108 134.371078,201.340317 135.604095,199.486313 
	C136.657806,197.901947 136.786514,195.618942 137.039368,193.609100 
	C137.286987,191.640717 136.375305,188.783829 137.394821,187.817322 
	C139.239243,186.068817 142.279602,184.318924 144.570328,184.601181 
	C147.977676,185.020996 150.182251,184.778534 152.304596,181.907013 
	C153.265945,180.606293 155.651001,180.445007 156.930405,179.267319 
	C158.173126,178.123398 158.827377,176.340210 159.944504,174.501175 
	C164.092926,177.420380 165.998444,174.817429 168.184204,171.049820 
	C169.714096,168.412796 172.688217,166.613617 175.682236,163.819763 
	C176.630280,166.532990 177.140076,167.991989 177.661270,169.483582 
	C183.114380,171.559952 185.908707,168.040833 188.856659,164.189819 
	C187.950348,163.208542 187.093704,162.281052 185.879456,160.966354 
	C187.132584,159.625763 188.309509,158.366684 190.046066,156.508926 
	C191.356705,159.246506 192.380142,161.384216 194.220779,165.228851 
	C197.198334,159.643494 199.615677,155.156464 201.967941,150.635590 
	C202.256836,150.080322 202.017731,148.880478 202.326584,148.760544 
	C207.584732,146.719284 208.462646,140.806976 211.747101,137.800430 
	C216.031662,133.878433 217.902908,129.627121 219.651047,124.298752 
	C220.944458,124.205833 222.569901,124.485329 223.803253,123.915756 
	C226.176727,122.819679 228.771881,121.645233 230.469437,119.772850 
	C233.117218,116.852356 234.978683,113.233521 237.420959,110.103844 
	C238.210739,109.091774 239.742691,108.610809 240.997681,108.019623 
	C243.824432,106.688019 246.632019,105.275986 249.566269,104.230133 
	C250.907822,103.751976 252.585098,103.783493 254.014847,104.066017 
	C258.321075,104.916939 262.591064,106.835625 266.855408,106.781364 
	C271.751648,106.719078 274.438293,108.618546 275.758087,112.811539 
	C276.720093,115.867828 278.474365,116.905106 281.561676,117.146072 
	C283.100861,117.266212 284.557495,118.859261 285.981232,119.883675 
	C286.809906,120.479935 287.381836,121.535522 288.270844,121.928764 
	C294.149292,124.529015 298.264618,128.481750 298.643066,135.610092 
	C297.584106,136.487457 296.880615,136.960876 296.177094,137.434296 
	C296.559082,137.830673 296.941071,138.227036 297.323059,138.623413 
	C297.882050,137.748947 298.441040,136.874481 299.000000,136.000000 
	C302.119232,136.353638 305.251343,136.625458 308.349731,137.111862 
	C309.253082,137.253693 310.794159,137.999207 310.799744,138.482391 
	C310.866516,144.262955 317.284454,145.468124 318.996826,150.042587 
	C319.307861,150.873367 320.673218,151.977676 321.401672,151.876328 
	C326.399750,151.181030 328.001190,154.995377 329.848999,158.179932 
	C332.295532,162.396225 335.150787,165.457993 340.405090,166.205978 
	C343.511566,166.648209 346.409790,168.553284 349.765961,169.952408 
	C348.839111,171.162735 347.921143,172.361450 346.381897,174.371460 
	C352.038177,176.286652 357.133942,178.012039 362.873291,179.955353 
	C362.650543,179.062683 362.888855,179.455399 362.778839,179.667038 
	C361.999908,181.165421 361.149536,182.626678 360.321960,184.099777 
	C362.279694,184.733398 364.208374,185.787384 366.200378,185.925049 
	C373.349030,186.419067 373.316681,186.686935 374.205353,193.453918 
	C374.531525,195.937836 377.180725,198.116699 378.770264,200.434708 
	C379.190247,200.284286 379.610199,200.133865 380.030182,199.983444 
	C379.574402,200.977112 379.132690,201.977509 378.660126,202.963120 
	C377.398529,205.594421 378.943024,207.543823 381.080261,206.811249 
	C388.261505,204.349625 389.820770,211.258438 393.871063,213.890686 
	C396.158356,215.377167 398.540466,217.103989 400.045410,219.295578 
	C401.450378,221.341675 403.106934,224.987930 402.218719,226.416077 
	C400.919373,228.505310 398.015259,228.766327 394.550537,227.468369 
	C388.851654,225.333466 382.435822,225.010529 376.275787,224.371750 
	C375.684753,224.310440 374.121521,227.399750 374.100800,229.040253 
	C373.924133,243.032318 374.000061,257.027618 373.999939,271.021942 
	C373.999725,295.345428 373.990204,319.668915 374.016998,343.992371 
	C374.018982,345.801453 374.280823,347.610291 374.762817,350.174194 
	C375.075043,355.283325 375.046265,359.637482 374.718323,364.285522 
	C374.279053,373.008026 374.078522,381.436401 374.049072,389.865387 
	C374.043091,391.579285 374.681366,393.295441 375.064697,395.436646 
	C375.079376,397.573944 375.052002,399.285156 375.024658,400.996399 
	C374.682678,402.718903 374.064789,404.438263 374.045135,406.164429 
	C373.944763,414.985748 373.902222,423.810394 374.049896,432.630371 
	C374.103149,435.810028 373.415985,438.672089 370.163116,439.196442 
	C368.150208,439.520935 365.876831,438.010864 363.683380,437.476044 
	C357.819580,436.046143 357.642914,431.742065 357.850006,426.882599 
	C357.902557,425.649353 356.201660,424.341400 356.165833,424.290436 
	C355.059875,420.735657 354.538849,418.367310 353.525818,416.232391 
	C353.226135,415.600739 351.512207,415.314301 350.492432,415.402557 
	C343.342316,416.021118 336.214111,417.255829 329.060577,417.402771 
	C308.283844,417.829529 287.498749,417.869019 266.716522,417.998413 
	C255.568619,418.067841 244.419937,418.010437 233.271591,418.009033 
	C226.366104,418.008148 219.458664,418.109558 212.555542,417.980652 
	C198.614090,417.720276 184.676071,417.152557 170.734497,417.069458 
	C162.622574,417.021118 154.509155,417.797302 146.391541,417.962128 
	C138.740768,418.117462 138.002335,417.269867 138.001419,409.867035 
	C137.999039,390.890472 138.000610,371.913879 138.364716,352.396942 
	C140.860718,348.777679 143.093796,345.761658 145.067276,342.584412 
	C145.721100,341.531830 145.882904,340.074677 145.959366,338.784088 
	C146.097061,336.459534 146.118988,334.113586 145.971375,331.790405 
	C145.796021,329.030731 146.829849,327.983887 149.680817,327.933014 
	C154.307663,327.850494 158.926880,327.327148 163.548737,326.982147 
	C166.600891,326.754303 167.427155,325.232422 166.452560,322.343079 
	C158.741241,326.009216 157.094498,324.869812 156.964767,316.469208 
	C156.906128,312.672638 156.175034,308.868164 156.352341,305.095673 
	C156.418045,303.697662 157.944473,301.696533 159.275452,301.177490 
	C161.634903,300.257416 165.203110,302.235931 166.123260,298.028351 
	C166.716660,295.314941 167.795456,292.617096 167.840668,289.898682 
	C167.890732,286.890045 166.630554,284.472656 162.671112,284.905060 
	C161.257843,285.059448 159.726028,284.128479 158.248337,283.692902 
	C160.355911,282.002197 162.372437,281.775299 164.091187,280.937561 
	C165.473892,280.263580 166.496338,278.850494 167.678619,277.765381 
	C166.506500,276.836975 165.389191,275.204559 164.152267,275.108215 
	C159.932846,274.779663 155.670258,275.052643 151.426224,274.978119 
	C148.178513,274.921143 145.623352,274.397186 144.331268,270.385406 
	C143.706406,268.445282 140.201904,267.432587 138.001221,266.000000 
M266.218353,330.433167 
	C266.617371,330.664215 267.016418,330.895233 267.713196,331.623108 
	C267.786560,331.801697 267.859924,331.980286 268.140839,332.888672 
	C270.425262,333.253632 272.709717,333.618591 275.474701,334.463928 
	C274.690552,334.972931 273.962311,335.773895 273.111938,335.936707 
	C270.471741,336.442108 267.785156,336.705139 264.059052,337.203705 
	C263.527374,335.246490 262.604889,332.923187 262.318817,330.523987 
	C261.967529,327.577759 256.048828,319.746979 253.025604,318.969757 
	C253.025604,318.969757 253.063690,318.887207 253.041855,318.169495 
	C252.557953,317.149719 252.126114,316.101166 251.581558,315.114868 
	C248.457657,309.456696 244.720200,304.045563 242.361664,298.087189 
	C240.649887,293.762665 239.678818,288.576111 240.290314,284.031281 
	C241.259903,276.825256 243.198563,269.579376 245.927780,262.836304 
	C247.960510,257.813995 251.891785,253.560089 254.993637,249.004715 
	C254.993637,249.004715 254.960052,248.975266 255.677872,248.944550 
	C256.304321,248.137100 256.930756,247.329651 257.557190,246.522202 
	C256.089752,246.015152 254.624573,245.074371 253.154541,245.066742 
	C234.173203,244.968231 215.191177,244.986664 196.209351,245.009460 
	C184.953568,245.022980 178.202148,250.952988 178.073669,262.030151 
	C177.791779,286.336945 177.791367,310.652161 178.149353,334.956940 
	C178.223190,339.969391 177.697693,346.394562 184.683228,348.342224 
	C188.852951,349.504791 193.131760,350.489258 197.425705,350.933533 
	C201.762375,351.382141 204.218781,352.821899 204.033188,357.629486 
	C203.821396,363.115997 203.947815,368.617432 204.001022,374.111664 
	C204.037994,377.929565 206.096207,378.776489 209.269257,377.272858 
	C210.583405,376.650177 211.704163,375.579987 212.839722,374.626221 
	C218.737289,369.672852 224.683441,364.772980 230.450638,359.671295 
	C232.235214,358.092651 233.510864,355.938629 235.223343,353.550690 
	C235.533142,353.388184 235.842941,353.225708 236.946487,353.046234 
	C243.707062,352.371796 250.478226,351.783020 257.219116,350.949280 
	C258.538910,350.786072 259.741364,349.674164 261.000000,349.000000 
	C261.000000,349.000000 260.999664,348.997986 261.792053,349.020813 
	C265.919556,349.650177 267.190247,346.306549 269.711792,343.924438 
	C270.130524,344.067749 270.549225,344.211090 270.961792,345.008728 
	C270.630981,346.256104 270.300140,347.503479 269.570251,348.992584 
	C269.570251,348.992584 269.106964,349.047913 268.387451,349.090729 
	C267.705475,350.539246 266.183441,352.296814 266.571503,353.351654 
	C266.981262,354.465485 269.212219,354.909271 271.126099,355.540833 
	C271.467010,355.555389 271.764648,355.676422 272.063934,356.630096 
	C273.464661,359.602448 274.233459,363.404388 279.947144,361.898865 
	C284.508362,361.875610 289.069611,361.852325 294.378082,361.899841 
	C296.251892,359.931335 298.125702,357.962799 300.416107,355.640778 
	C300.907257,355.411713 301.398407,355.182678 302.613953,354.903168 
	C303.151947,353.102448 303.980988,351.325714 304.132233,349.493042 
	C304.245483,348.121460 302.702881,346.131561 303.243774,345.356720 
	C306.257294,341.039642 303.361664,337.652374 302.214813,333.525482 
	C302.495422,333.074860 302.776031,332.624237 303.304749,331.635712 
	C303.406952,331.466766 303.509186,331.297821 304.157532,330.865753 
	C304.338959,330.117493 304.520386,329.369202 304.735382,327.906860 
	C305.136322,326.594543 305.537262,325.282227 306.738861,323.974213 
	C307.393219,322.815094 308.047577,321.655975 308.794281,319.832550 
	C311.095703,317.501892 313.397125,315.171234 316.373291,313.136505 
	C320.457794,314.150574 323.042114,312.097168 324.467163,308.649292 
	C324.825134,307.783203 323.497589,306.220520 322.982422,304.207825 
	C327.432861,293.710602 328.252655,282.990173 325.524933,271.535614 
	C326.080139,262.923950 322.095215,257.076080 314.415283,255.618805 
	C311.186279,253.810989 307.957245,252.003174 304.349701,250.108459 
	C304.349701,250.108459 304.014618,249.912140 303.885956,249.216949 
	C293.256409,242.376862 282.040710,243.179977 270.738464,246.954239 
	C268.613739,247.663757 266.898926,249.600815 264.694855,251.152924 
	C264.694855,251.152924 264.345428,251.182907 263.562408,251.067993 
	C260.554810,253.132629 257.197662,254.847412 254.660400,257.382721 
	C252.917252,259.124542 252.312561,262.005646 251.079056,265.019592 
	C250.606003,265.997864 250.132965,266.976105 249.028244,268.136383 
	C248.296463,270.738556 247.564667,273.340759 246.885529,276.630249 
	C246.771637,277.072479 246.657730,277.514740 245.862778,278.258087 
	C246.064804,282.853363 246.266830,287.448608 246.732254,292.688751 
	C246.755814,293.149689 246.779373,293.610596 246.333313,294.547516 
	C247.484436,297.042419 248.635559,299.537323 250.081985,302.619141 
	C250.781433,303.964966 251.480881,305.310822 252.063553,307.514435 
	C252.769745,314.030701 258.911957,315.503845 263.307800,319.383484 
	C263.525238,319.927338 263.742676,320.471222 263.516022,321.353271 
	C263.990021,321.905518 264.464020,322.457794 265.161743,323.708710 
	C265.319519,324.424774 265.477295,325.140839 264.912201,326.166718 
	C265.272339,327.447937 265.632477,328.729156 266.218353,330.433167 
M275.000183,178.998993 
	C275.000183,178.998993 275.057526,178.926468 275.019409,179.737274 
	C275.937561,186.825409 277.027344,188.165817 283.701782,188.871536 
	C286.993408,189.219574 290.553497,189.480423 293.644257,188.582809 
	C296.700073,187.695358 299.317627,185.298859 302.934326,183.066238 
	C302.438629,179.999420 301.771606,175.872635 300.944031,170.752716 
	C301.120331,170.490494 302.007904,169.170380 302.555176,168.356461 
	C299.897644,165.792389 296.720764,163.926773 295.485138,161.185989 
	C294.330017,158.623657 293.398193,157.414902 290.645813,156.612579 
	C282.896912,154.353745 282.259277,153.076645 284.648743,146.379852 
	C280.871857,146.616043 277.403839,146.832932 274.000275,147.001053 
	C274.000275,147.001053 273.949921,147.064926 273.987274,146.224060 
	C274.321899,143.690231 274.656525,141.156387 275.023315,138.379089 
	C272.490601,138.379089 270.634033,138.379089 268.105408,138.379089 
	C270.590454,132.592651 265.143127,133.190720 262.904846,131.831604 
	C259.102570,129.522812 254.327911,126.119873 250.068451,130.308624 
	C246.868607,133.455383 243.849319,134.506348 239.729309,132.850983 
	C239.392227,133.994019 239.145645,134.593811 239.042358,135.217316 
	C238.108627,140.854248 235.836365,145.206940 229.449081,146.187042 
	C228.419907,146.344971 227.555038,147.780640 226.681320,148.690109 
	C225.685730,149.726425 224.790268,150.858337 223.807571,151.907761 
	C221.087341,154.812729 218.368561,157.719803 215.601456,160.579865 
	C213.897568,162.340958 212.149963,164.065140 210.344177,165.721054 
	C207.392471,168.427780 204.329132,171.015076 201.440613,173.785904 
	C201.005630,174.203171 200.886765,175.699738 201.258316,176.088394 
	C204.000305,178.956528 204.606659,183.584763 209.439255,184.859375 
	C212.212845,185.590927 214.475418,188.100128 217.138321,189.480576 
	C218.406570,190.138031 220.332916,190.652603 221.513245,190.159561 
	C226.863983,187.924484 232.508026,185.948792 237.179321,182.651276 
	C242.094940,179.181320 247.931351,175.540512 247.088486,167.403015 
	C247.273972,167.132095 247.528168,166.966736 248.545578,167.224365 
	C253.911682,168.892624 258.516022,170.769180 258.206970,178.041504 
	C258.013092,182.603043 264.166412,185.526505 269.443481,184.193848 
	C268.605835,182.417130 267.761780,180.626801 266.662415,178.294968 
	C270.222046,178.569077 272.647614,178.755844 275.000183,178.998993 
M250.751266,178.754593 
	C249.836624,178.276321 248.921982,177.798035 248.007324,177.319763 
	C247.689896,178.696762 247.372452,180.073761 247.055008,181.450760 
	C247.493088,181.698166 247.931183,181.945587 248.369263,182.193008 
	C249.203278,181.295654 250.037292,180.398300 250.751266,178.754593 
M236.041916,132.356232 
	C236.561523,132.109024 237.081131,131.861816 237.600739,131.614624 
	C237.181015,131.198792 236.761292,130.782959 236.341568,130.367126 
	C236.097336,130.887558 235.853119,131.407990 236.041916,132.356232 
M196.200073,167.603149 
	C196.204315,167.212418 196.208542,166.821701 196.212784,166.430969 
	C196.050644,166.429398 195.747559,166.416916 195.746719,166.427826 
	C195.716629,166.816635 195.714859,167.207626 196.200073,167.603149 
z"/>
<path fill="#537B8F" opacity="1.000000" stroke="none" 
	d="
M279.088531,102.898605 
	C272.014740,96.788002 265.137421,90.985481 258.470154,84.950867 
	C255.639114,82.388458 253.767838,82.690338 250.911270,85.193115 
	C209.832336,121.184357 168.642838,157.049484 127.457474,192.919174 
	C113.268311,205.277008 99.089783,217.649704 84.709824,229.782639 
	C82.755852,231.431290 79.665680,232.468399 77.079697,232.512787 
	C61.084301,232.787292 45.081276,232.805450 29.084566,232.605713 
	C26.779537,232.576904 24.494886,230.915833 22.200802,230.010132 
	C23.319767,227.807846 23.907791,224.992752 25.636883,223.494659 
	C54.213245,198.735809 83.010101,174.231567 111.601570,149.490021 
	C148.883820,117.227928 186.031326,84.810104 223.230713,52.452282 
	C231.274765,45.455166 239.277588,38.410641 247.327835,31.420694 
	C253.512833,26.050306 256.736908,26.194368 262.959808,31.572683 
	C293.835236,58.257599 324.750946,84.895950 355.663177,111.538246 
	C356.734314,112.461449 357.919189,113.252716 359.842896,114.702072 
	C360.007812,112.041336 360.203674,110.305481 360.208954,108.569046 
	C360.249023,95.402809 360.226318,82.236351 360.277496,69.070175 
	C360.300598,63.124908 361.401764,62.007095 367.252991,61.974068 
	C376.752533,61.920448 386.252472,61.945770 395.752258,61.939175 
	C402.554657,61.934452 403.543152,62.840736 403.562469,69.695602 
	C403.634735,95.361511 403.768585,121.028404 403.583679,146.692795 
	C403.551239,151.194611 405.095703,154.008972 408.432953,156.821945 
	C434.158020,178.505722 459.739532,200.359879 485.353271,222.175583 
	C486.618988,223.253632 487.921051,224.346481 488.944824,225.639389 
	C491.203278,228.491684 490.226532,231.159424 486.748169,231.943344 
	C486.104919,232.088303 485.423615,232.114410 484.760132,232.112335 
	C467.427490,232.058289 450.091400,232.149918 432.765961,231.764191 
	C430.113617,231.705124 427.084869,229.932114 424.949402,228.109299 
	C398.725830,205.725235 372.652771,183.165024 346.507202,160.689423 
	C324.150665,141.471008 301.750702,122.303055 279.088531,102.898605 
z"/>
<path fill="#8FA693" opacity="1.000000" stroke="none" 
	d="
M133.762573,226.801483 
	C134.431061,226.656921 134.868668,226.789322 135.646500,226.963257 
	C135.968552,288.141449 135.945282,349.278107 135.936707,410.414764 
	C135.935089,422.008026 135.962006,422.013916 147.550568,422.012665 
	C212.020432,422.005859 276.490417,422.043640 340.959900,421.888336 
	C345.653656,421.877045 347.335541,422.997101 347.174652,427.912933 
	C346.826080,438.563110 346.838409,449.240387 347.184601,459.890930 
	C347.339630,464.660004 345.968903,466.050415 341.119965,466.041046 
	C266.321930,465.896149 191.523483,465.945007 116.725128,465.948944 
	C112.060646,465.949188 107.395699,465.991699 102.731796,465.940033 
	C96.461441,465.870575 93.173721,463.026581 92.321144,456.845886 
	C92.072540,455.043701 92.178291,453.188019 92.178711,451.356842 
	C92.192795,390.218811 92.241928,329.080750 92.160919,267.942841 
	C92.156281,264.440643 93.185036,261.965118 95.795258,259.727203 
	C108.422623,248.900909 120.961479,237.971375 133.762573,226.801483 
z"/>
<path fill="#D7B995" opacity="1.000000" stroke="none" 
	d="
M375.017487,363.991638 
	C375.046265,359.637482 375.075043,355.283325 375.062744,350.466248 
	C375.306152,348.083344 375.836273,346.163666 375.838776,344.243317 
	C375.887543,306.758331 375.874817,269.273193 375.874725,231.788101 
	C375.874725,230.040482 375.874725,228.292847 375.874725,225.110382 
	C379.743652,228.414780 382.445862,230.719788 385.144928,233.028442 
	C395.370361,241.774857 405.726715,250.376633 415.703583,259.398010 
	C417.599884,261.112732 418.933044,264.487396 418.941101,267.101074 
	C419.134125,329.908905 419.116241,392.717438 419.120392,455.525818 
	C419.120911,463.035950 416.397034,465.880341 408.975983,465.947632 
	C399.480560,466.033752 389.979187,465.793823 380.489655,466.044342 
	C376.567047,466.147888 375.787262,464.620270 375.816956,461.062988 
	C375.967194,443.071381 375.894775,425.077850 375.870270,407.085022 
	C375.867798,405.265991 375.663391,403.447266 375.288696,401.312378 
	C375.052002,399.285156 375.079376,397.573944 375.328369,395.119415 
	C375.659058,388.619720 375.907623,382.861481 375.831757,377.107513 
	C375.774109,372.732727 375.304047,368.363403 375.017487,363.991638 
z"/>
<path fill="#FEFEFE" opacity="1.000000" stroke="none" 
	d="
M138.000870,266.468658 
	C140.201904,267.432587 143.706406,268.445282 144.331268,270.385406 
	C145.623352,274.397186 148.178513,274.921143 151.426224,274.978119 
	C155.670258,275.052643 159.932846,274.779663 164.152267,275.108215 
	C165.389191,275.204559 166.506500,276.836975 167.678619,277.765381 
	C166.496338,278.850494 165.473892,280.263580 164.091187,280.937561 
	C162.372437,281.775299 160.355911,282.002197 158.248337,283.692902 
	C159.726028,284.128479 161.257843,285.059448 162.671112,284.905060 
	C166.630554,284.472656 167.890732,286.890045 167.840668,289.898682 
	C167.795456,292.617096 166.716660,295.314941 166.123260,298.028351 
	C165.203110,302.235931 161.634903,300.257416 159.275452,301.177490 
	C157.944473,301.696533 156.418045,303.697662 156.352341,305.095673 
	C156.175034,308.868164 156.906128,312.672638 156.964767,316.469208 
	C157.094498,324.869812 158.741241,326.009216 166.452560,322.343079 
	C167.427155,325.232422 166.600891,326.754303 163.548737,326.982147 
	C158.926880,327.327148 154.307663,327.850494 149.680817,327.933014 
	C146.829849,327.983887 145.796021,329.030731 145.971375,331.790405 
	C146.118988,334.113586 146.097061,336.459534 145.959366,338.784088 
	C145.882904,340.074677 145.721100,341.531830 145.067276,342.584412 
	C143.093796,345.761658 140.860718,348.777679 138.365021,351.928284 
	C138.001022,343.213806 137.756332,334.417816 138.107330,325.645691 
	C138.274139,321.476685 139.701721,317.371460 140.310791,313.201202 
	C140.606979,311.173218 140.609848,309.013733 140.254745,307.000336 
	C139.734253,304.049194 138.182571,301.191132 138.106430,298.266418 
	C137.834686,287.829529 138.000366,277.381287 138.000870,266.468658 
z"/>
<path fill="#537C90" opacity="1.000000" stroke="none" 
	d="
M236.152740,353.063232 
	C235.842941,353.225708 235.533142,353.388184 234.784317,353.846466 
	C225.231308,361.617828 216.117310,369.093414 207.003326,376.569000 
	C206.561340,376.284149 206.119370,375.999298 205.677383,375.714447 
	C205.677383,371.122253 205.685349,366.529999 205.675812,361.937805 
	C205.651596,350.274902 205.648468,350.274902 194.134171,349.372223 
	C185.576920,348.701416 179.805618,343.714783 179.732224,335.727020 
	C179.504486,310.944977 179.496399,286.157440 179.774673,261.376190 
	C179.869736,252.908615 186.166992,247.020584 194.591934,246.929337 
	C213.553146,246.723969 232.517593,246.760025 251.479935,246.855270 
	C252.643494,246.861115 253.800171,248.236893 254.960052,248.975266 
	C254.960052,248.975266 254.993637,249.004715 254.647949,249.030838 
	C244.888718,256.445801 239.928864,266.444458 238.573227,278.020996 
	C236.718842,293.856323 240.751785,307.919769 253.063690,318.887207 
	C253.063690,318.887207 253.025604,318.969757 253.158035,319.282532 
	C255.411697,323.470032 258.456787,327.127808 259.430084,331.272156 
	C260.772461,336.988373 260.551178,343.071838 260.999664,348.997986 
	C260.999664,348.997986 261.000000,349.000000 260.533325,349.062683 
	C253.985764,349.364624 247.880341,349.363434 241.838013,349.980286 
	C239.858643,350.182343 238.043167,351.989899 236.152740,353.063232 
z"/>
<path fill="#8EA793" opacity="1.000000" stroke="none" 
	d="
M305.938202,323.969910 
	C305.537262,325.282227 305.136322,326.594543 304.446716,328.419800 
	C303.975830,329.664764 303.793610,330.396820 303.611389,331.128845 
	C303.509186,331.297821 303.406952,331.466766 302.724121,331.882874 
	C299.420898,332.287811 296.698303,332.445587 293.704407,332.233521 
	C293.250336,325.228027 293.067535,318.592468 293.157501,311.666260 
	C293.682587,308.278717 293.934906,305.181824 294.557648,302.070831 
	C297.374237,300.811768 300.210602,300.001709 302.184662,298.230560 
	C306.196289,294.631256 305.813599,291.939117 301.349487,288.446533 
	C299.602234,288.344757 298.035889,288.549561 296.123108,288.759216 
	C294.552002,289.800171 292.526001,290.652771 292.239410,291.903748 
	C290.901886,297.742920 286.934723,298.672577 281.789673,297.910522 
	C281.141693,297.332489 280.638275,297.016052 280.132874,296.338074 
	C278.569153,293.584564 277.007477,291.192535 275.310760,288.547668 
	C274.406036,288.078369 273.636383,287.861908 272.484619,287.622772 
	C270.730927,288.056366 269.359314,288.512634 267.656586,289.151062 
	C265.417389,292.120544 264.809692,294.815918 267.968018,297.443878 
	C268.216431,297.877899 268.439636,298.039856 268.834473,298.422058 
	C269.634674,299.141602 270.320557,299.561890 271.224243,300.240601 
	C273.182892,301.047852 274.923767,301.596649 276.773193,302.502014 
	C277.072754,303.578033 277.263733,304.297455 277.346497,305.471375 
	C277.313049,312.277252 277.387787,318.628632 277.333435,325.349976 
	C277.294800,326.486115 277.385223,327.252289 277.368469,328.417114 
	C276.804260,330.063568 276.347260,331.311371 275.472168,332.423828 
	C272.680511,332.245239 270.306885,332.202057 267.933289,332.158875 
	C267.859924,331.980286 267.786560,331.801697 267.681458,331.070923 
	C267.184143,329.846588 266.718597,329.174469 266.288239,328.219513 
	C266.093994,327.243408 265.864532,326.550171 265.635071,325.856903 
	C265.477295,325.140839 265.319519,324.424774 265.065247,323.058472 
	C264.632538,321.943817 264.296295,321.479462 263.960083,321.015076 
	C263.742676,320.471222 263.525238,319.927338 263.055176,318.888916 
	C259.261810,314.481781 255.721069,310.569214 252.180313,306.656647 
	C251.480881,305.310822 250.781433,303.964966 249.948364,301.958313 
	C248.810806,298.888824 247.806854,296.480164 246.802917,294.071533 
	C246.779373,293.610596 246.755814,293.149689 246.731781,291.913635 
	C246.668823,286.744659 246.606339,282.350830 246.543823,277.956970 
	C246.657730,277.514740 246.771637,277.072479 247.144318,276.072449 
	C248.155380,272.994568 248.907669,270.474487 249.659943,267.954376 
	C250.132965,266.976105 250.606003,265.997864 251.443420,264.549194 
	C255.987015,259.780182 260.166229,255.481537 264.345428,251.182907 
	C264.345428,251.182907 264.694855,251.152924 265.214661,251.035065 
	C267.405457,250.216980 269.071014,249.503540 270.748260,248.818741 
	C281.998810,244.225357 293.038483,246.117081 304.014618,249.912140 
	C304.014618,249.912140 304.349701,250.108459 304.675751,250.459091 
	C308.635468,253.591644 312.269104,256.373535 316.042175,259.419983 
	C316.833984,260.441772 317.486389,261.199066 318.147095,262.309662 
	C319.830566,266.250092 321.784760,269.736115 323.128113,273.443420 
	C327.034851,284.224884 324.761810,294.683228 320.910583,305.156677 
	C320.830475,305.317139 320.773560,305.671295 320.474060,305.815247 
	C319.095398,307.627350 318.016296,309.295502 316.692017,311.123352 
	C316.197418,311.802246 315.947998,312.321411 315.698578,312.840576 
	C313.397125,315.171234 311.095703,317.501892 308.459534,320.337036 
	C307.395935,321.884308 306.667053,322.927124 305.938202,323.969910 
z"/>
<path fill="#D7BB99" opacity="1.000000" stroke="none" 
	d="
M247.851059,166.906937 
	C247.528168,166.966736 247.273972,167.132095 246.710724,167.780106 
	C241.825180,172.312881 237.348648,176.503220 232.794373,180.607315 
	C230.953796,182.265961 229.102280,184.010620 226.979691,185.239197 
	C221.258575,188.550659 213.895554,185.553131 212.292389,179.150223 
	C211.209885,174.826828 211.591904,170.651443 215.272552,167.259689 
	C225.754333,157.600586 236.033585,147.720169 246.583908,138.137543 
	C252.616302,132.658447 257.797119,133.069733 264.140106,138.741959 
	C267.335602,141.599533 270.675385,144.295746 273.949921,147.064926 
	C273.949921,147.064926 274.000275,147.001053 274.102356,147.331436 
	C277.480194,150.700104 280.801697,153.690826 284.020569,156.788239 
	C288.420166,161.021790 293.116852,165.026260 296.987213,169.706924 
	C300.588959,174.062759 299.386932,180.488327 295.204559,184.045990 
	C291.755249,186.980103 285.192291,186.823029 281.339142,183.755951 
	C279.272980,182.111328 277.153137,180.534103 275.057526,178.926468 
	C275.057526,178.926468 275.000183,178.998993 274.903137,178.664581 
	C269.643219,173.458160 264.317047,168.744659 259.376953,163.656357 
	C256.272095,160.458344 253.724884,160.005920 250.825439,163.604111 
	C249.897247,164.756012 248.846008,165.808807 247.851059,166.906937 
z"/>
<path fill="#EBF2F1" opacity="1.000000" stroke="none" 
	d="
M277.462524,324.980011 
	C277.387787,318.628632 277.313049,312.277252 277.638000,305.374451 
	C277.580017,303.930511 277.122314,303.037994 276.664612,302.145447 
	C274.923767,301.596649 273.182892,301.047852 271.170532,299.903137 
	C270.172729,298.912445 269.446442,298.517670 268.720123,298.122864 
	C268.439636,298.039856 268.216431,297.877899 268.007812,297.070343 
	C268.253357,293.610535 269.135315,294.083679 270.974701,295.649719 
	C272.407288,296.869446 274.478210,297.339417 276.265472,298.142578 
	C276.492004,297.649445 276.718506,297.156342 276.945038,296.663239 
	C275.380402,293.954926 275.043854,289.778320 269.843842,291.390167 
	C269.507599,291.494385 268.619263,289.817322 267.987732,288.968903 
	C269.359314,288.512634 270.730927,288.056366 272.687683,287.953979 
	C273.997162,288.472076 274.721497,288.636292 275.445801,288.800507 
	C277.007477,291.192535 278.569153,293.584564 280.107483,296.650482 
	C280.700806,297.606934 281.317505,297.889496 281.934235,298.172058 
	C286.934723,298.672577 290.901886,297.742920 292.239410,291.903748 
	C292.526001,290.652771 294.552002,289.800171 296.629089,288.831360 
	C298.831146,288.850189 300.180786,288.801666 301.530396,288.753113 
	C305.813599,291.939117 306.196289,294.631256 302.184662,298.230560 
	C300.210602,300.001709 297.374237,300.811768 294.150513,302.111359 
	C293.210175,305.429596 293.047455,308.693237 292.884735,311.956879 
	C293.067535,318.592468 293.250336,325.228027 293.860840,332.537231 
	C296.848175,333.473877 299.407776,333.736969 301.967377,334.000000 
	C303.361664,337.652374 306.257294,341.039642 303.243774,345.356720 
	C302.702881,346.131561 304.245483,348.121460 304.132233,349.493042 
	C303.980988,351.325714 303.151947,353.102448 302.332977,354.559631 
	C303.847198,350.222137 302.276031,348.758087 298.202576,348.785400 
	C288.792023,348.848480 279.380463,348.771210 269.969330,348.750854 
	C270.300140,347.503479 270.630981,346.256104 271.420105,344.548889 
	C280.516571,344.077118 289.159485,344.210358 297.788757,343.926758 
	C299.448730,343.872192 302.230896,342.404816 302.458649,341.203156 
	C303.067657,337.990356 300.343109,337.784790 297.842529,337.796295 
	C289.702301,337.833710 281.561615,337.781006 273.421387,337.818726 
	C268.241821,337.842743 267.784424,338.515137 269.059418,343.795197 
	C267.190247,346.306549 265.919556,349.650177 261.395874,349.009399 
	C260.551178,343.071838 260.772461,336.988373 259.430084,331.272156 
	C258.456787,327.127808 255.411697,323.470032 253.200470,319.266235 
	C256.048828,319.746979 261.967529,327.577759 262.318817,330.523987 
	C262.604889,332.923187 263.527374,335.246490 264.059052,337.203705 
	C267.785156,336.705139 270.471741,336.442108 273.111938,335.936707 
	C273.962311,335.773895 274.690552,334.972931 275.314392,334.023773 
	C275.399475,333.242157 275.644867,332.900665 275.890228,332.559204 
	C276.347260,331.311371 276.804260,330.063568 277.636810,328.332855 
	C277.829041,326.893311 277.645782,325.936676 277.462524,324.980011 
M298.742584,294.992218 
	C301.098145,293.393402 301.098145,293.393402 298.459991,291.187836 
	C298.281616,292.627472 298.135315,293.808228 297.251434,295.007568 
	C296.590363,295.655029 295.929291,296.302490 295.268250,296.949982 
	C295.766815,297.224182 296.265350,297.498383 296.763916,297.772583 
	C297.179413,296.851837 297.594940,295.931122 298.742584,294.992218 
M285.367737,333.470520 
	C286.245636,332.982727 287.123566,332.494934 288.095398,331.072540 
	C288.146790,322.947449 288.334961,314.818604 288.113586,306.700958 
	C288.077087,305.362396 286.476288,303.305359 285.194946,302.919250 
	C282.464081,302.096313 281.325928,304.137665 281.362152,306.637665 
	C281.450714,312.754822 281.654266,318.870331 281.428101,325.749298 
	C281.660736,328.616364 279.577728,332.623413 285.367737,333.470520 
z"/>
<path fill="#FCFDFC" opacity="1.000000" stroke="none" 
	d="
M273.968597,146.644501 
	C270.675385,144.295746 267.335602,141.599533 264.140106,138.741959 
	C257.797119,133.069733 252.616302,132.658447 246.583908,138.137543 
	C236.033585,147.720169 225.754333,157.600586 215.272552,167.259689 
	C211.591904,170.651443 211.209885,174.826828 212.292389,179.150223 
	C213.895554,185.553131 221.258575,188.550659 226.979691,185.239197 
	C229.102280,184.010620 230.953796,182.265961 232.794373,180.607315 
	C237.348648,176.503220 241.825180,172.312881 246.633347,167.999237 
	C247.931351,175.540512 242.094940,179.181320 237.179321,182.651276 
	C232.508026,185.948792 226.863983,187.924484 221.513245,190.159561 
	C220.332916,190.652603 218.406570,190.138031 217.138321,189.480576 
	C214.475418,188.100128 212.212845,185.590927 209.439255,184.859375 
	C204.606659,183.584763 204.000305,178.956528 201.258316,176.088394 
	C200.886765,175.699738 201.005630,174.203171 201.440613,173.785904 
	C204.329132,171.015076 207.392471,168.427780 210.344177,165.721054 
	C212.149963,164.065140 213.897568,162.340958 215.601456,160.579865 
	C218.368561,157.719803 221.087341,154.812729 223.807571,151.907761 
	C224.790268,150.858337 225.685730,149.726425 226.681320,148.690109 
	C227.555038,147.780640 228.419907,146.344971 229.449081,146.187042 
	C235.836365,145.206940 238.108627,140.854248 239.042358,135.217316 
	C239.145645,134.593811 239.392227,133.994019 239.729309,132.850983 
	C243.849319,134.506348 246.868607,133.455383 250.068451,130.308624 
	C254.327911,126.119873 259.102570,129.522812 262.904846,131.831604 
	C265.143127,133.190720 270.590454,132.592651 268.105408,138.379089 
	C270.634033,138.379089 272.490601,138.379089 275.023315,138.379089 
	C274.656525,141.156387 274.321899,143.690231 273.968597,146.644501 
z"/>
<path fill="#EBF2F1" opacity="1.000000" stroke="none" 
	d="
M255.318970,248.959900 
	C253.800171,248.236893 252.643494,246.861115 251.479935,246.855270 
	C232.517593,246.760025 213.553146,246.723969 194.591934,246.929337 
	C186.166992,247.020584 179.869736,252.908615 179.774673,261.376190 
	C179.496399,286.157440 179.504486,310.944977 179.732224,335.727020 
	C179.805618,343.714783 185.576920,348.701416 194.134171,349.372223 
	C205.648468,350.274902 205.651596,350.274902 205.675812,361.937805 
	C205.685349,366.529999 205.677383,371.122253 205.677383,375.714447 
	C206.119370,375.999298 206.561340,376.284149 207.003326,376.569000 
	C216.117310,369.093414 225.231308,361.617828 234.682404,354.095154 
	C233.510864,355.938629 232.235214,358.092651 230.450638,359.671295 
	C224.683441,364.772980 218.737289,369.672852 212.839722,374.626221 
	C211.704163,375.579987 210.583405,376.650177 209.269257,377.272858 
	C206.096207,378.776489 204.037994,377.929565 204.001022,374.111664 
	C203.947815,368.617432 203.821396,363.115997 204.033188,357.629486 
	C204.218781,352.821899 201.762375,351.382141 197.425705,350.933533 
	C193.131760,350.489258 188.852951,349.504791 184.683228,348.342224 
	C177.697693,346.394562 178.223190,339.969391 178.149353,334.956940 
	C177.791367,310.652161 177.791779,286.336945 178.073669,262.030151 
	C178.202148,250.952988 184.953568,245.022980 196.209351,245.009460 
	C215.191177,244.986664 234.173203,244.968231 253.154541,245.066742 
	C254.624573,245.074371 256.089752,246.015152 257.557190,246.522202 
	C256.930756,247.329651 256.304321,248.137100 255.318970,248.959900 
z"/>
<path fill="#5E8192" opacity="1.000000" stroke="none" 
	d="
M269.769775,348.871735 
	C279.380463,348.771210 288.792023,348.848480 298.202576,348.785400 
	C302.276031,348.758087 303.847198,350.222137 301.970795,354.584869 
	C301.398407,355.182678 300.907257,355.411713 299.852570,355.818665 
	C297.402954,357.940735 295.516907,359.884888 293.630829,361.829041 
	C289.069611,361.852325 284.508362,361.875610 279.269409,361.664886 
	C276.400787,359.588562 274.209900,357.746216 272.018982,355.903900 
	C271.764648,355.676422 271.467010,355.555389 270.719543,355.294373 
	C269.910980,353.047913 269.508972,351.047913 269.106964,349.047913 
	C269.106964,349.047913 269.570251,348.992584 269.769775,348.871735 
z"/>
<path fill="#FCFDFC" opacity="1.000000" stroke="none" 
	d="
M275.038452,179.331879 
	C277.153137,180.534103 279.272980,182.111328 281.339142,183.755951 
	C285.192291,186.823029 291.755249,186.980103 295.204559,184.045990 
	C299.386932,180.488327 300.588959,174.062759 296.987213,169.706924 
	C293.116852,165.026260 288.420166,161.021790 284.020569,156.788239 
	C280.801697,153.690826 277.480194,150.700104 274.070099,147.355804 
	C277.403839,146.832932 280.871857,146.616043 284.648743,146.379852 
	C282.259277,153.076645 282.896912,154.353745 290.645813,156.612579 
	C293.398193,157.414902 294.330017,158.623657 295.485138,161.185989 
	C296.720764,163.926773 299.897644,165.792389 302.555176,168.356461 
	C302.007904,169.170380 301.120331,170.490494 300.944031,170.752716 
	C301.771606,175.872635 302.438629,179.999420 302.934326,183.066238 
	C299.317627,185.298859 296.700073,187.695358 293.644257,188.582809 
	C290.553497,189.480423 286.993408,189.219574 283.701782,188.871536 
	C277.027344,188.165817 275.937561,186.825409 275.038452,179.331879 
z"/>
<path fill="#FCFDFC" opacity="1.000000" stroke="none" 
	d="
M248.198318,167.065643 
	C248.846008,165.808807 249.897247,164.756012 250.825439,163.604111 
	C253.724884,160.005920 256.272095,160.458344 259.376953,163.656357 
	C264.317047,168.744659 269.643219,173.458160 274.939636,178.636414 
	C272.647614,178.755844 270.222046,178.569077 266.662415,178.294968 
	C267.761780,180.626801 268.605835,182.417130 269.443481,184.193848 
	C264.166412,185.526505 258.013092,182.603043 258.206970,178.041504 
	C258.516022,170.769180 253.911682,168.892624 248.198318,167.065643 
z"/>
<path fill="#638392" opacity="1.000000" stroke="none" 
	d="
M269.385620,343.859802 
	C267.784424,338.515137 268.241821,337.842743 273.421387,337.818726 
	C281.561615,337.781006 289.702301,337.833710 297.842529,337.796295 
	C300.343109,337.784790 303.067657,337.990356 302.458649,341.203156 
	C302.230896,342.404816 299.448730,343.872192 297.788757,343.926758 
	C289.159485,344.210358 280.516571,344.077118 271.423157,344.221741 
	C270.549225,344.211090 270.130524,344.067749 269.385620,343.859802 
z"/>
<path fill="#EBF2F1" opacity="1.000000" stroke="none" 
	d="
M253.052765,318.528351 
	C240.751785,307.919769 236.718842,293.856323 238.573227,278.020996 
	C239.928864,266.444458 244.888718,256.445801 254.639893,249.010468 
	C251.891785,253.560089 247.960510,257.813995 245.927780,262.836304 
	C243.198563,269.579376 241.259903,276.825256 240.290314,284.031281 
	C239.678818,288.576111 240.649887,293.762665 242.361664,298.087189 
	C244.720200,304.045563 248.457657,309.456696 251.581558,315.114868 
	C252.126114,316.101166 252.557953,317.149719 253.052765,318.528351 
z"/>
<path fill="#E0E9E1" opacity="1.000000" stroke="none" 
	d="
M320.990723,304.996246 
	C324.761810,294.683228 327.034851,284.224884 323.128113,273.443420 
	C321.784760,269.736115 319.830566,266.250092 318.485901,262.358704 
	C320.864624,265.375305 322.912872,268.696167 324.961151,272.017059 
	C328.252655,282.990173 327.432861,293.710602 322.638611,304.598511 
	C321.860107,304.991547 321.425415,304.993896 320.990723,304.996246 
z"/>
<path fill="#EBF2F1" opacity="1.000000" stroke="none" 
	d="
M303.950287,249.564545 
	C293.038483,246.117081 281.998810,244.225357 270.748260,248.818741 
	C269.071014,249.503540 267.405457,250.216980 265.364746,250.944305 
	C266.898926,249.600815 268.613739,247.663757 270.738464,246.954239 
	C282.040710,243.179977 293.256409,242.376862 303.950287,249.564545 
z"/>
<path fill="#FCFDFC" opacity="1.000000" stroke="none" 
	d="
M374.718323,364.285522 
	C375.304047,368.363403 375.774109,372.732727 375.831757,377.107513 
	C375.907623,382.861481 375.659058,388.619720 375.286316,394.693359 
	C374.681366,393.295441 374.043091,391.579285 374.049072,389.865387 
	C374.078522,381.436401 374.279053,373.008026 374.718323,364.285522 
z"/>
<path fill="#FBFEFB" opacity="1.000000" stroke="none" 
	d="
M325.243042,271.776337 
	C322.912872,268.696167 320.864624,265.375305 318.477539,262.005371 
	C317.486389,261.199066 316.833984,260.441772 316.059479,259.083923 
	C315.609009,257.662384 315.280701,256.841431 314.952393,256.020477 
	C322.095215,257.076080 326.080139,262.923950 325.243042,271.776337 
z"/>
<path fill="#EBF2F1" opacity="1.000000" stroke="none" 
	d="
M236.549622,353.054718 
	C238.043167,351.989899 239.858643,350.182343 241.838013,349.980286 
	C247.880341,349.363434 253.985764,349.364624 260.532288,349.062561 
	C259.741364,349.674164 258.538910,350.786072 257.219116,350.949280 
	C250.478226,351.783020 243.707062,352.371796 236.549622,353.054718 
z"/>
<path fill="#EBF2F1" opacity="1.000000" stroke="none" 
	d="
M263.953918,251.125458 
	C260.166229,255.481537 255.987015,259.780182 251.503387,264.228149 
	C252.312561,262.005646 252.917252,259.124542 254.660400,257.382721 
	C257.197662,254.847412 260.554810,253.132629 263.953918,251.125458 
z"/>
<path fill="#FBFEFB" opacity="1.000000" stroke="none" 
	d="
M320.910583,305.156677 
	C321.425415,304.993896 321.860107,304.991547 322.619751,304.983582 
	C323.497589,306.220520 324.825134,307.783203 324.467163,308.649292 
	C323.042114,312.097168 320.457794,314.150574 316.035950,312.988525 
	C315.947998,312.321411 316.197418,311.802246 317.051819,311.104309 
	C318.695709,309.174103 319.734650,307.422699 320.773560,305.671295 
	C320.773560,305.671295 320.830475,305.317139 320.910583,305.156677 
z"/>
<path fill="#EBF2F1" opacity="1.000000" stroke="none" 
	d="
M252.121933,307.085541 
	C255.721069,310.569214 259.261810,314.481781 262.796539,318.735718 
	C258.911957,315.503845 252.769745,314.030701 252.121933,307.085541 
z"/>
<path fill="#E0E9E1" opacity="1.000000" stroke="none" 
	d="
M314.683838,255.819641 
	C315.280701,256.841431 315.609009,257.662384 315.920044,258.819397 
	C312.269104,256.373535 308.635468,253.591644 304.865021,250.502533 
	C307.957245,252.003174 311.186279,253.810989 314.683838,255.819641 
z"/>
<path fill="#EBF2F1" opacity="1.000000" stroke="none" 
	d="
M246.203308,278.107544 
	C246.606339,282.350830 246.668823,286.744659 246.600098,291.591187 
	C246.266830,287.448608 246.064804,282.853363 246.203308,278.107544 
z"/>
<path fill="#EBF2F1" opacity="1.000000" stroke="none" 
	d="
M272.041443,356.266998 
	C274.209900,357.746216 276.400787,359.588562 278.806580,361.680450 
	C274.233459,363.404388 273.464661,359.602448 272.041443,356.266998 
z"/>
<path fill="#FCFDFC" opacity="1.000000" stroke="none" 
	d="
M250.811279,179.127777 
	C250.037292,180.398300 249.203278,181.295654 248.369263,182.193008 
	C247.931183,181.945587 247.493088,181.698166 247.055008,181.450760 
	C247.372452,180.073761 247.689896,178.696762 248.007324,177.319763 
	C248.921982,177.798035 249.836624,178.276321 250.811279,179.127777 
z"/>
<path fill="#E0E9E1" opacity="1.000000" stroke="none" 
	d="
M302.091095,333.762756 
	C299.407776,333.736969 296.848175,333.473877 294.132141,332.907104 
	C296.698303,332.445587 299.420898,332.287811 302.600098,332.151825 
	C302.776031,332.624237 302.495422,333.074860 302.091095,333.762756 
z"/>
<path fill="#EBF2F1" opacity="1.000000" stroke="none" 
	d="
M246.568115,294.309509 
	C247.806854,296.480164 248.810806,298.888824 249.800720,301.664856 
	C248.635559,299.537323 247.484436,297.042419 246.568115,294.309509 
z"/>
<path fill="#EBF2F1" opacity="1.000000" stroke="none" 
	d="
M268.747192,349.069336 
	C269.508972,351.047913 269.910980,353.047913 270.480286,355.346863 
	C269.212219,354.909271 266.981262,354.465485 266.571503,353.351654 
	C266.183441,352.296814 267.705475,350.539246 268.747192,349.069336 
z"/>
<path fill="#EBF2F1" opacity="1.000000" stroke="none" 
	d="
M294.004456,361.864441 
	C295.516907,359.884888 297.402954,357.940735 299.644287,355.995422 
	C298.125702,357.962799 296.251892,359.931335 294.004456,361.864441 
z"/>
<path fill="#EBF2F1" opacity="1.000000" stroke="none" 
	d="
M249.344086,268.045380 
	C248.907669,270.474487 248.155380,272.994568 247.117996,275.728821 
	C247.564667,273.340759 248.296463,270.738556 249.344086,268.045380 
z"/>
<path fill="#E5ECE4" opacity="1.000000" stroke="none" 
	d="
M275.472168,332.423828 
	C275.644867,332.900665 275.399475,333.242157 275.074127,333.783600 
	C272.709717,333.618591 270.425262,333.253632 268.037048,332.523743 
	C270.306885,332.202057 272.680511,332.245239 275.472168,332.423828 
z"/>
<path fill="#FCFDFC" opacity="1.000000" stroke="none" 
	d="
M298.643799,136.007019 
	C298.441040,136.874481 297.882050,137.748947 297.323059,138.623413 
	C296.941071,138.227036 296.559082,137.830673 296.177094,137.434296 
	C296.880615,136.960876 297.584106,136.487457 298.643799,136.007019 
z"/>
<path fill="#EBF2F1" opacity="1.000000" stroke="none" 
	d="
M265.273621,326.011810 
	C265.864532,326.550171 266.093994,327.243408 266.207520,328.595123 
	C266.058563,329.505859 266.025574,329.758118 265.992615,330.010376 
	C265.632477,328.729156 265.272339,327.447937 265.273621,326.011810 
z"/>
<path fill="#FCFDFC" opacity="1.000000" stroke="none" 
	d="
M235.825409,132.142334 
	C235.853119,131.407990 236.097336,130.887558 236.341568,130.367126 
	C236.761292,130.782959 237.181015,131.198792 237.600739,131.614624 
	C237.081131,131.861816 236.561523,132.109024 235.825409,132.142334 
z"/>
<path fill="#EBF2F1" opacity="1.000000" stroke="none" 
	d="
M306.338531,323.972046 
	C306.667053,322.927124 307.395935,321.884308 308.413330,320.669189 
	C308.047577,321.655975 307.393219,322.815094 306.338531,323.972046 
z"/>
<path fill="#E0E9E1" opacity="1.000000" stroke="none" 
	d="
M303.884460,330.997314 
	C303.793610,330.396820 303.975830,329.664764 304.429932,328.776855 
	C304.520386,329.369202 304.338959,330.117493 303.884460,330.997314 
z"/>
<path fill="#E5ECE4" opacity="1.000000" stroke="none" 
	d="
M266.105469,330.221771 
	C266.025574,329.758118 266.058563,329.505859 266.172302,328.877960 
	C266.718597,329.174469 267.184143,329.846588 267.532593,330.822479 
	C267.016418,330.895233 266.617371,330.664215 266.105469,330.221771 
z"/>
<path fill="#EBF2F1" opacity="1.000000" stroke="none" 
	d="
M263.738037,321.184174 
	C264.296295,321.479462 264.632538,321.943817 264.953369,322.709106 
	C264.464020,322.457794 263.990021,321.905518 263.738037,321.184174 
z"/>
<path fill="#FCFDFC" opacity="1.000000" stroke="none" 
	d="
M195.954590,167.600739 
	C195.714859,167.207626 195.716629,166.816635 195.746719,166.427826 
	C195.747559,166.416916 196.050644,166.429398 196.212784,166.430969 
	C196.208542,166.821701 196.204315,167.212418 195.954590,167.600739 
z"/>
<path fill="#E5ECE4" opacity="1.000000" stroke="none" 
	d="
M267.656586,289.151062 
	C268.619263,289.817322 269.507599,291.494385 269.843842,291.390167 
	C275.043854,289.778320 275.380402,293.954926 276.945038,296.663239 
	C276.718506,297.156342 276.492004,297.649445 276.265472,298.142578 
	C274.478210,297.339417 272.407288,296.869446 270.974701,295.649719 
	C269.135315,294.083679 268.253357,293.610535 267.925293,296.877197 
	C264.809692,294.815918 265.417389,292.120544 267.656586,289.151062 
z"/>
<path fill="#E0E9E1" opacity="1.000000" stroke="none" 
	d="
M293.157501,311.666260 
	C293.047455,308.693237 293.210175,305.429596 293.780029,302.125427 
	C293.934906,305.181824 293.682587,308.278717 293.157501,311.666260 
z"/>
<path fill="#E0E9E1" opacity="1.000000" stroke="none" 
	d="
M320.474060,305.815247 
	C319.734650,307.422699 318.695709,309.174103 317.296997,310.944580 
	C318.016296,309.295502 319.095398,307.627350 320.474060,305.815247 
z"/>
<path fill="#E5ECE4" opacity="1.000000" stroke="none" 
	d="
M301.349487,288.446533 
	C300.180786,288.801666 298.831146,288.850189 296.975525,288.826538 
	C298.035889,288.549561 299.602234,288.344757 301.349487,288.446533 
z"/>
<path fill="#E5ECE4" opacity="1.000000" stroke="none" 
	d="
M277.333435,325.349976 
	C277.645782,325.936676 277.829041,326.893311 277.743958,327.934204 
	C277.385223,327.252289 277.294800,326.486115 277.333435,325.349976 
z"/>
<path fill="#E5ECE4" opacity="1.000000" stroke="none" 
	d="
M276.773193,302.502014 
	C277.122314,303.037994 277.580017,303.930511 277.746216,304.919983 
	C277.263733,304.297455 277.072754,303.578033 276.773193,302.502014 
z"/>
<path fill="#E5ECE4" opacity="1.000000" stroke="none" 
	d="
M268.834473,298.422058 
	C269.446442,298.517670 270.172729,298.912445 270.952728,299.644714 
	C270.320557,299.561890 269.634674,299.141602 268.834473,298.422058 
z"/>
<path fill="#E5ECE4" opacity="1.000000" stroke="none" 
	d="
M281.789673,297.910522 
	C281.317505,297.889496 280.700806,297.606934 280.109497,297.011963 
	C280.638275,297.016052 281.141693,297.332489 281.789673,297.910522 
z"/>
<path fill="#E5ECE4" opacity="1.000000" stroke="none" 
	d="
M275.310760,288.547668 
	C274.721497,288.636292 273.997162,288.472076 273.069763,287.976654 
	C273.636383,287.861908 274.406036,288.078369 275.310760,288.547668 
z"/>
<path fill="#8AA28F" opacity="1.000000" stroke="none" 
	d="
M281.811584,324.986481 
	C281.654266,318.870331 281.450714,312.754822 281.362152,306.637665 
	C281.325928,304.137665 282.464081,302.096313 285.194946,302.919250 
	C286.476288,303.305359 288.077087,305.362396 288.113586,306.700958 
	C288.334961,314.818604 288.146790,322.947449 287.676819,331.514160 
	C286.515778,332.004486 285.773315,332.053223 284.827698,331.799438 
	C283.686890,329.326782 282.749237,327.156616 281.811584,324.986481 
z"/>
<path fill="#97AA9C" opacity="1.000000" stroke="none" 
	d="
M281.619843,325.367889 
	C282.749237,327.156616 283.686890,329.326782 284.816284,332.011292 
	C285.008057,332.525665 284.972565,332.949158 284.972565,332.949158 
	C279.577728,332.623413 281.660736,328.616364 281.619843,325.367889 
z"/>
<path fill="#E0E9E1" opacity="1.000000" stroke="none" 
	d="
M297.989014,294.988983 
	C298.135315,293.808228 298.281616,292.627472 298.459991,291.187836 
	C301.098145,293.393402 301.098145,293.393402 298.371216,294.996033 
	C297.999878,294.999878 297.989014,294.988983 297.989014,294.988983 
z"/>
<path fill="#E0E9E1" opacity="1.000000" stroke="none" 
	d="
M298.005188,295.005127 
	C297.594940,295.931122 297.179413,296.851837 296.763916,297.772583 
	C296.265350,297.498383 295.766815,297.224182 295.268250,296.949951 
	C295.929291,296.302490 296.590363,295.655029 297.620239,294.998291 
	C297.989014,294.988983 297.999878,294.999878 298.005188,295.005127 
z"/>
<path fill="#E9F1EB" opacity="1.000000" stroke="none" 
	d="
M285.170166,333.209839 
	C284.972565,332.949158 285.008057,332.525665 285.019470,332.313812 
	C285.773315,332.053223 286.515778,332.004486 287.629822,331.981445 
	C287.123566,332.494934 286.245636,332.982727 285.170166,333.209839 
z"/>
</svg>